<?xml version="1.0" encoding="iso-8859-1"?>
<!-- Uploaded to: SVG Repo, www.svgrepo.com, Generator: SVG Repo Mixer Tools -->
<svg height="800px" width="800px" version="1.1" id="Layer_1" xmlns="http://www.w3.org/2000/svg" xmlns:xlink="http://www.w3.org/1999/xlink" 
	 viewBox="0 0 512 512" xml:space="preserve">
<polygon style="fill:#FFB04C;" points="0,163.947 257.322,152.508 512,163.947 256,462.792 "/>
<polygon style="fill:#FFDB6C;" points="512,163.947 0,163.947 81.714,49.208 430.286,49.208 "/>
<polygon style="fill:#FFC866;" points="430.286,49.208 430.286,163.947 512,163.947 "/>
<path style="fill:#F7A05E;" d="M429.83,164.73L256,462.792l253.767-296.238c0.877-1.025,0.15-2.607-1.2-2.607h-77.374
	C430.632,163.947,430.112,164.245,429.83,164.73z"/>
<polygon style="fill:#FFDB6C;" points="81.714,49.208 430.286,49.208 256,462.792 "/>
<polygon style="fill:#FFF2BB;" points="381.935,163.947 430.286,49.208 81.714,49.208 130.065,163.947 "/>
<polygon style="fill:#FFEB8A;" points="130.065,163.947 256,49.208 381.935,163.947 "/>
</svg>